<svg xmlns="http://www.w3.org/2000/svg" xmlns:xlink="http://www.w3.org/1999/xlink" width="40" zoomAndPan="magnify" viewBox="0 0 30 30.000001" height="40" preserveAspectRatio="xMidYMid meet" version="1.2"><defs><clipPath id="647e963abe"><path d="M 2.007812 15 L 15 15 L 15 27.796875 L 2.007812 27.796875 Z M 2.007812 15 "/></clipPath><clipPath id="8960d314d7"><path d="M 16 26 L 22 26 L 22 27.796875 L 16 27.796875 Z M 16 26 "/></clipPath><clipPath id="5dec8d0fb7"><path d="M 24 23 L 28 23 L 28 27.796875 L 24 27.796875 Z M 24 23 "/></clipPath><clipPath id="c74fe53a27"><path d="M 24 1.667969 L 28 1.667969 L 28 6 L 24 6 Z M 24 1.667969 "/></clipPath><clipPath id="261a4fc3bb"><path d="M 7 1.667969 L 14 1.667969 L 14 4 L 7 4 Z M 7 1.667969 "/></clipPath><clipPath id="893b502aa5"><path d="M 16 1.667969 L 22 1.667969 L 22 4 L 16 4 Z M 16 1.667969 "/></clipPath><clipPath id="7e24b29efd"><path d="M 2.007812 1.667969 L 6 1.667969 L 6 6 L 2.007812 6 Z M 2.007812 1.667969 "/></clipPath><clipPath id="08598f1749"><path d="M 2.007812 7 L 4 7 L 4 14 L 2.007812 14 Z M 2.007812 7 "/></clipPath><clipPath id="d110df6851"><path d="M 13.410156 4.390625 L 25.601562 4.390625 L 25.601562 14.589844 L 13.410156 14.589844 Z M 13.410156 4.390625 "/></clipPath><clipPath id="fe287380fe"><path d="M 14.863281 4.390625 L 24.136719 4.390625 C 24.941406 4.390625 25.589844 5.042969 25.589844 5.84375 L 25.589844 13.136719 C 25.589844 13.9375 24.941406 14.589844 24.136719 14.589844 L 14.863281 14.589844 C 14.0625 14.589844 13.410156 13.9375 13.410156 13.136719 L 13.410156 5.84375 C 13.410156 5.042969 14.0625 4.390625 14.863281 4.390625 Z M 14.863281 4.390625 "/></clipPath><clipPath id="f393210463"><path d="M 14.167969 5.644531 L 24.84375 5.644531 L 24.84375 15.839844 L 14.167969 15.839844 Z M 14.167969 5.644531 "/></clipPath><clipPath id="efde3bb74b"><path d="M 15.621094 5.644531 L 23.378906 5.644531 C 24.179688 5.644531 24.832031 6.292969 24.832031 7.09375 L 24.832031 14.390625 C 24.832031 15.191406 24.179688 15.839844 23.378906 15.839844 L 15.621094 15.839844 C 14.820312 15.839844 14.167969 15.191406 14.167969 14.390625 L 14.167969 7.09375 C 14.167969 6.292969 14.820312 5.644531 15.621094 5.644531 Z M 15.621094 5.644531 "/></clipPath><clipPath id="8a837e689e"><path d="M 14 4 L 26 4 L 26 16 L 14 16 Z M 14 4 "/></clipPath><clipPath id="a6f4bd6b06"><path d="M 26.609375 10.371094 L 17.539062 18.738281 L 10.648438 11.269531 L 19.71875 2.902344 Z M 26.609375 10.371094 "/></clipPath><clipPath id="cc5c337f01"><path d="M 26.609375 10.371094 L 17.539062 18.738281 L 10.648438 11.269531 L 19.71875 2.902344 Z M 26.609375 10.371094 "/></clipPath></defs><g id="df8b658905"><path style=" stroke:none;fill-rule:nonzero;fill:#4f46e5;fill-opacity:1;" d="M 15.148438 6.847656 C 14.75 6.847656 14.425781 7.167969 14.425781 7.566406 L 14.425781 14.753906 C 14.425781 15.148438 14.75 15.472656 15.148438 15.472656 L 22.332031 15.472656 C 22.730469 15.472656 23.050781 15.148438 23.050781 14.753906 C 23.050781 14.355469 22.730469 14.03125 22.332031 14.03125 L 16.882812 14.03125 L 24.757812 6.160156 C 25.039062 5.878906 25.039062 5.421875 24.757812 5.140625 C 24.476562 4.859375 24.019531 4.859375 23.738281 5.140625 L 15.867188 13.015625 L 15.867188 7.566406 C 15.867188 7.167969 15.542969 6.847656 15.148438 6.847656 Z M 15.148438 6.847656 "/><g clip-rule="nonzero" clip-path="url(#647e963abe)"><path style=" stroke:none;fill-rule:nonzero;fill:#4f46e5;fill-opacity:1;" d="M 2.738281 27.507812 L 13.4375 27.507812 C 13.832031 27.507812 14.15625 27.183594 14.15625 26.785156 L 14.15625 16.089844 C 14.15625 15.691406 13.832031 15.371094 13.4375 15.371094 L 2.742188 15.371094 C 2.34375 15.371094 2.019531 15.691406 2.019531 16.089844 L 2.019531 16.425781 C 2.019531 16.425781 2.019531 16.425781 2.019531 16.429688 L 2.019531 20.832031 C 2.019531 20.832031 2.019531 20.832031 2.019531 20.835938 L 2.019531 24.496094 C 2.019531 24.496094 2.019531 24.5 2.019531 24.5 L 2.019531 26.785156 C 2.019531 27.183594 2.34375 27.507812 2.738281 27.507812 Z M 3.460938 16.808594 L 12.714844 16.808594 L 12.714844 26.066406 L 3.460938 26.066406 Z M 3.460938 16.808594 "/></g><g clip-rule="nonzero" clip-path="url(#8960d314d7)"><path style=" stroke:none;fill-rule:nonzero;fill:#4f46e5;fill-opacity:1;" d="M 16.765625 26.066406 C 16.367188 26.066406 16.046875 26.390625 16.046875 26.785156 C 16.046875 27.183594 16.367188 27.507812 16.765625 27.507812 L 21.167969 27.507812 C 21.566406 27.507812 21.890625 27.183594 21.890625 26.785156 C 21.890625 26.390625 21.566406 26.066406 21.167969 26.066406 Z M 16.765625 26.066406 "/></g><g clip-rule="nonzero" clip-path="url(#5dec8d0fb7)"><path style=" stroke:none;fill-rule:nonzero;fill:#4f46e5;fill-opacity:1;" d="M 27.125 23.78125 C 26.726562 23.78125 26.40625 24.101562 26.40625 24.5 L 26.40625 26.066406 L 24.839844 26.066406 C 24.441406 26.066406 24.121094 26.390625 24.121094 26.785156 C 24.121094 27.183594 24.441406 27.507812 24.839844 27.507812 L 27.125 27.507812 C 27.523438 27.507812 27.84375 27.183594 27.84375 26.785156 L 27.84375 24.5 C 27.84375 24.101562 27.523438 23.78125 27.125 23.78125 Z M 27.125 23.78125 "/></g><path style=" stroke:none;fill-rule:nonzero;fill:#4f46e5;fill-opacity:1;" d="M 27.125 15.707031 C 26.726562 15.707031 26.40625 16.03125 26.40625 16.429688 L 26.40625 20.832031 C 26.40625 21.226562 26.726562 21.550781 27.125 21.550781 C 27.523438 21.550781 27.84375 21.226562 27.84375 20.832031 L 27.84375 16.429688 C 27.84375 16.03125 27.523438 15.707031 27.125 15.707031 Z M 27.125 15.707031 "/><path style=" stroke:none;fill-rule:nonzero;fill:#4f46e5;fill-opacity:1;" d="M 27.125 7.636719 C 26.726562 7.636719 26.40625 7.957031 26.40625 8.355469 L 26.40625 12.757812 C 26.40625 13.15625 26.726562 13.476562 27.125 13.476562 C 27.523438 13.476562 27.84375 13.15625 27.84375 12.757812 L 27.84375 8.355469 C 27.84375 7.957031 27.523438 7.636719 27.125 7.636719 Z M 27.125 7.636719 "/><g clip-rule="nonzero" clip-path="url(#c74fe53a27)"><path style=" stroke:none;fill-rule:nonzero;fill:#4f46e5;fill-opacity:1;" d="M 27.125 1.679688 L 24.839844 1.679688 C 24.441406 1.679688 24.121094 2.003906 24.121094 2.402344 C 24.121094 2.796875 24.441406 3.121094 24.839844 3.121094 L 26.40625 3.121094 L 26.40625 4.6875 C 26.40625 5.085938 26.730469 5.40625 27.125 5.40625 C 27.523438 5.40625 27.847656 5.085938 27.847656 4.6875 L 27.847656 2.402344 C 27.84375 2.003906 27.523438 1.679688 27.125 1.679688 Z M 27.125 1.679688 "/></g><g clip-rule="nonzero" clip-path="url(#261a4fc3bb)"><path style=" stroke:none;fill-rule:nonzero;fill:#4f46e5;fill-opacity:1;" d="M 13.097656 3.121094 C 13.496094 3.121094 13.816406 2.796875 13.816406 2.398438 C 13.816406 2.003906 13.496094 1.679688 13.097656 1.679688 L 8.695312 1.679688 C 8.296875 1.679688 7.976562 2.003906 7.976562 2.398438 C 7.976562 2.796875 8.296875 3.121094 8.695312 3.121094 Z M 13.097656 3.121094 "/></g><g clip-rule="nonzero" clip-path="url(#893b502aa5)"><path style=" stroke:none;fill-rule:nonzero;fill:#4f46e5;fill-opacity:1;" d="M 21.167969 3.121094 C 21.566406 3.121094 21.890625 2.796875 21.890625 2.398438 C 21.890625 2.003906 21.566406 1.679688 21.167969 1.679688 L 16.765625 1.679688 C 16.371094 1.679688 16.046875 2.003906 16.046875 2.398438 C 16.046875 2.796875 16.371094 3.121094 16.765625 3.121094 Z M 21.167969 3.121094 "/></g><g clip-rule="nonzero" clip-path="url(#7e24b29efd)"><path style=" stroke:none;fill-rule:nonzero;fill:#4f46e5;fill-opacity:1;" d="M 2.738281 5.40625 C 3.136719 5.40625 3.460938 5.082031 3.460938 4.6875 L 3.460938 3.121094 L 5.027344 3.121094 C 5.421875 3.121094 5.746094 2.796875 5.746094 2.398438 C 5.746094 2.003906 5.421875 1.679688 5.027344 1.679688 L 2.738281 1.679688 C 2.34375 1.679688 2.019531 2.003906 2.019531 2.398438 L 2.019531 4.6875 C 2.019531 5.082031 2.34375 5.40625 2.738281 5.40625 Z M 2.738281 5.40625 "/></g><g clip-rule="nonzero" clip-path="url(#08598f1749)"><path style=" stroke:none;fill-rule:nonzero;fill:#4f46e5;fill-opacity:1;" d="M 2.738281 13.476562 C 3.136719 13.476562 3.460938 13.15625 3.460938 12.757812 L 3.460938 8.355469 C 3.460938 7.957031 3.136719 7.636719 2.738281 7.636719 C 2.34375 7.636719 2.019531 7.957031 2.019531 8.355469 L 2.019531 12.757812 C 2.019531 13.15625 2.34375 13.476562 2.738281 13.476562 Z M 2.738281 13.476562 "/></g><g clip-rule="nonzero" clip-path="url(#d110df6851)"><g clip-rule="nonzero" clip-path="url(#fe287380fe)"><path style=" stroke:none;fill-rule:nonzero;fill:#ffffff;fill-opacity:1;" d="M 13.410156 4.390625 L 25.601562 4.390625 L 25.601562 14.589844 L 13.410156 14.589844 Z M 13.410156 4.390625 "/></g></g><g clip-rule="nonzero" clip-path="url(#f393210463)"><g clip-rule="nonzero" clip-path="url(#efde3bb74b)"><path style=" stroke:none;fill-rule:nonzero;fill:#ffffff;fill-opacity:1;" d="M 14.167969 5.644531 L 24.84375 5.644531 L 24.84375 15.839844 L 14.167969 15.839844 Z M 14.167969 5.644531 "/></g></g><g clip-rule="nonzero" clip-path="url(#8a837e689e)"><g clip-rule="nonzero" clip-path="url(#a6f4bd6b06)"><g clip-rule="nonzero" clip-path="url(#cc5c337f01)"><path style=" stroke:none;fill-rule:nonzero;fill:#4f46e5;fill-opacity:1;" d="M 24.699219 11.703125 C 24.8125 11.824219 24.804688 12.015625 24.683594 12.128906 L 23.804688 12.941406 L 23.398438 12.5 L 24.277344 11.6875 C 24.398438 11.574219 24.589844 11.582031 24.699219 11.703125 Z M 23.246094 11.011719 C 23.132812 10.886719 22.941406 10.882812 22.820312 10.992188 L 22.382812 11.398438 L 22.789062 11.839844 L 23.226562 11.433594 C 23.347656 11.320312 23.355469 11.132812 23.246094 11.011719 Z M 18.40625 4.878906 C 18.292969 4.757812 18.101562 4.75 17.980469 4.863281 L 17.101562 5.675781 L 17.507812 6.113281 L 18.386719 5.300781 C 18.507812 5.191406 18.515625 5 18.40625 4.878906 Z M 18.980469 6.386719 C 18.867188 6.265625 18.679688 6.257812 18.558594 6.367188 L 18.117188 6.773438 L 18.523438 7.214844 L 18.964844 6.808594 C 19.085938 6.699219 19.09375 6.507812 18.980469 6.386719 Z M 17.394531 13.347656 L 17.539062 13.21875 C 17.660156 13.105469 17.851562 13.113281 17.960938 13.234375 L 18.164062 13.453125 L 18.96875 12.714844 C 19.035156 12.652344 19.132812 12.625 19.226562 12.640625 L 23.371094 13.355469 L 20.722656 10.484375 C 20.609375 10.363281 20.617188 10.171875 20.738281 10.0625 L 21.730469 9.148438 C 21.808594 9.074219 21.894531 9.058594 21.988281 9.074219 L 24.375 9.5625 L 25.035156 8.953125 L 23.296875 8.128906 C 23.152344 8.058594 23.085938 7.875 23.15625 7.730469 L 23.480469 7.066406 L 22.941406 6.480469 L 22.25 6.75 C 22.101562 6.808594 21.921875 6.726562 21.867188 6.578125 L 21.175781 4.769531 L 20.515625 5.378906 L 20.820312 7.785156 C 20.828125 7.878906 20.792969 7.976562 20.726562 8.035156 L 19.734375 8.949219 C 19.613281 9.0625 19.421875 9.054688 19.3125 8.933594 L 16.660156 6.058594 L 17.042969 10.25 C 17.050781 10.347656 17.015625 10.441406 16.949219 10.5 L 16.144531 11.242188 L 16.347656 11.460938 C 16.460938 11.582031 16.453125 11.773438 16.332031 11.886719 L 16.1875 12.019531 C 15.4375 12.707031 14.242188 14.503906 14.222656 15.054688 C 14.71875 15.0625 16.527344 14.152344 17.394531 13.347656 Z M 17.394531 13.347656 "/></g></g></g><g style="fill:#4f46e5;fill-opacity:1;"><g transform="translate(5.295904, 26.313838)"><path style="stroke:none" d="M 0.40625 -0.40625 C 0.3125 -0.300781 0.203125 -0.234375 0.078125 -0.203125 C -0.0351562 -0.179688 -0.132812 -0.210938 -0.21875 -0.296875 C -0.226562 -0.304688 -0.242188 -0.316406 -0.265625 -0.328125 L -0.03125 -0.59375 C 0.0078125 -0.5625 0.0507812 -0.539062 0.09375 -0.53125 C 0.132812 -0.53125 0.175781 -0.554688 0.21875 -0.609375 C 0.25 -0.640625 0.265625 -0.675781 0.265625 -0.71875 C 0.273438 -0.757812 0.265625 -0.796875 0.234375 -0.828125 C 0.203125 -0.859375 0.160156 -0.863281 0.109375 -0.84375 C 0.0664062 -0.832031 0.0078125 -0.8125 -0.0625 -0.78125 C -0.132812 -0.738281 -0.195312 -0.707031 -0.25 -0.6875 C -0.3125 -0.675781 -0.367188 -0.675781 -0.421875 -0.6875 C -0.484375 -0.695312 -0.539062 -0.722656 -0.59375 -0.765625 C -0.664062 -0.828125 -0.707031 -0.898438 -0.71875 -0.984375 C -0.738281 -1.066406 -0.734375 -1.148438 -0.703125 -1.234375 C -0.671875 -1.328125 -0.617188 -1.410156 -0.546875 -1.484375 C -0.484375 -1.546875 -0.414062 -1.59375 -0.34375 -1.625 C -0.28125 -1.664062 -0.210938 -1.679688 -0.140625 -1.671875 C -0.0664062 -1.671875 -0.00390625 -1.644531 0.046875 -1.59375 C 0.0664062 -1.570312 0.078125 -1.5625 0.078125 -1.5625 L -0.171875 -1.296875 C -0.171875 -1.296875 -0.175781 -1.300781 -0.1875 -1.3125 C -0.207031 -1.332031 -0.234375 -1.34375 -0.265625 -1.34375 C -0.304688 -1.34375 -0.34375 -1.328125 -0.375 -1.296875 C -0.40625 -1.253906 -0.421875 -1.210938 -0.421875 -1.171875 C -0.421875 -1.128906 -0.410156 -1.097656 -0.390625 -1.078125 C -0.359375 -1.046875 -0.320312 -1.03125 -0.28125 -1.03125 C -0.238281 -1.039062 -0.175781 -1.066406 -0.09375 -1.109375 C -0.0195312 -1.148438 0.0390625 -1.175781 0.09375 -1.1875 C 0.15625 -1.195312 0.21875 -1.195312 0.28125 -1.1875 C 0.34375 -1.1875 0.398438 -1.160156 0.453125 -1.109375 C 0.515625 -1.054688 0.554688 -0.988281 0.578125 -0.90625 C 0.609375 -0.832031 0.609375 -0.75 0.578125 -0.65625 C 0.546875 -0.570312 0.488281 -0.488281 0.40625 -0.40625 Z M 0.40625 -0.40625 "/></g></g><g style="fill:#4f46e5;fill-opacity:1;"><g transform="translate(6.145279, 25.40495)"><path style="stroke:none" d="M -0.203125 -1.421875 C -0.140625 -1.503906 -0.0625 -1.546875 0.03125 -1.546875 C 0.125 -1.554688 0.210938 -1.519531 0.296875 -1.4375 C 0.316406 -1.414062 0.34375 -1.390625 0.375 -1.359375 L 0.765625 -0.828125 L 0.546875 -0.578125 L 0.1875 -1.078125 C 0.164062 -1.085938 0.148438 -1.097656 0.140625 -1.109375 C 0.0976562 -1.148438 0.0546875 -1.171875 0.015625 -1.171875 C -0.0234375 -1.171875 -0.0664062 -1.148438 -0.109375 -1.109375 C -0.160156 -1.054688 -0.1875 -1 -0.1875 -0.9375 C -0.195312 -0.875 -0.175781 -0.816406 -0.125 -0.765625 L 0.25 -0.265625 L 0.015625 -0.015625 L -0.890625 -1.21875 L -0.65625 -1.46875 L -0.34375 -1.046875 C -0.34375 -1.117188 -0.332031 -1.1875 -0.3125 -1.25 C -0.289062 -1.3125 -0.253906 -1.367188 -0.203125 -1.421875 Z M -0.203125 -1.421875 "/></g></g><g style="fill:#4f46e5;fill-opacity:1;"><g transform="translate(7.065665, 24.420077)"><path style="stroke:none" d="M -0.296875 -1.015625 C -0.304688 -1.085938 -0.304688 -1.160156 -0.296875 -1.234375 C -0.285156 -1.304688 -0.253906 -1.367188 -0.203125 -1.421875 L 0.015625 -1.125 L -0.046875 -1.0625 C -0.109375 -1 -0.140625 -0.941406 -0.140625 -0.890625 C -0.148438 -0.835938 -0.125 -0.769531 -0.0625 -0.6875 L 0.25 -0.265625 L 0.015625 -0.015625 L -0.65625 -0.90625 L -0.421875 -1.15625 Z M -0.296875 -1.015625 "/></g></g><g style="fill:#4f46e5;fill-opacity:1;"><g transform="translate(7.650123, 23.794669)"><path style="stroke:none" d="M -0.625 -1.140625 C -0.664062 -1.097656 -0.703125 -1.070312 -0.734375 -1.0625 C -0.773438 -1.0625 -0.816406 -1.082031 -0.859375 -1.125 C -0.898438 -1.15625 -0.921875 -1.203125 -0.921875 -1.265625 C -0.921875 -1.335938 -0.894531 -1.398438 -0.84375 -1.453125 C -0.800781 -1.484375 -0.757812 -1.5 -0.71875 -1.5 C -0.675781 -1.507812 -0.640625 -1.5 -0.609375 -1.46875 C -0.566406 -1.425781 -0.546875 -1.375 -0.546875 -1.3125 C -0.546875 -1.25 -0.570312 -1.191406 -0.625 -1.140625 Z M -0.421875 -1.15625 L 0.25 -0.265625 L 0.015625 -0.015625 L -0.65625 -0.90625 Z M -0.421875 -1.15625 "/></g></g><g style="fill:#4f46e5;fill-opacity:1;"><g transform="translate(8.052962, 23.363604)"><path style="stroke:none" d="M -0.203125 -1.421875 C -0.140625 -1.503906 -0.0625 -1.546875 0.03125 -1.546875 C 0.125 -1.554688 0.210938 -1.519531 0.296875 -1.4375 C 0.316406 -1.414062 0.34375 -1.390625 0.375 -1.359375 L 0.765625 -0.828125 L 0.546875 -0.578125 L 0.1875 -1.078125 C 0.164062 -1.085938 0.148438 -1.097656 0.140625 -1.109375 C 0.0976562 -1.148438 0.0546875 -1.171875 0.015625 -1.171875 C -0.0234375 -1.171875 -0.0664062 -1.148438 -0.109375 -1.109375 C -0.160156 -1.054688 -0.1875 -1 -0.1875 -0.9375 C -0.195312 -0.875 -0.175781 -0.816406 -0.125 -0.765625 L 0.25 -0.265625 L 0.015625 -0.015625 L -0.65625 -0.90625 L -0.421875 -1.15625 L -0.34375 -1.046875 C -0.351562 -1.117188 -0.34375 -1.1875 -0.3125 -1.25 C -0.289062 -1.3125 -0.253906 -1.367188 -0.203125 -1.421875 Z M -0.203125 -1.421875 "/></g></g><g style="fill:#4f46e5;fill-opacity:1;"><g transform="translate(8.973347, 22.378732)"><path style="stroke:none" d="M 0.109375 -0.953125 L 0.765625 -0.828125 L 0.484375 -0.515625 L -0.03125 -0.640625 L 0.25 -0.265625 L 0.015625 -0.015625 L -0.890625 -1.21875 L -0.65625 -1.46875 L -0.15625 -0.8125 L -0.203125 -1.40625 L 0.078125 -1.703125 Z M 0.109375 -0.953125 "/></g></g><g style="fill:#4f46e5;fill-opacity:1;"><g transform="translate(9.81726, 21.475689)"><path style="stroke:none" d="M -0.625 -1.140625 C -0.664062 -1.097656 -0.703125 -1.070312 -0.734375 -1.0625 C -0.773438 -1.0625 -0.816406 -1.082031 -0.859375 -1.125 C -0.898438 -1.15625 -0.921875 -1.203125 -0.921875 -1.265625 C -0.921875 -1.335938 -0.894531 -1.398438 -0.84375 -1.453125 C -0.800781 -1.484375 -0.757812 -1.5 -0.71875 -1.5 C -0.675781 -1.507812 -0.640625 -1.5 -0.609375 -1.46875 C -0.566406 -1.425781 -0.546875 -1.375 -0.546875 -1.3125 C -0.546875 -1.25 -0.570312 -1.191406 -0.625 -1.140625 Z M -0.421875 -1.15625 L 0.25 -0.265625 L 0.015625 -0.015625 L -0.65625 -0.90625 Z M -0.421875 -1.15625 "/></g></g><g style="fill:#4f46e5;fill-opacity:1;"><g transform="translate(10.220099, 21.044625)"><path style="stroke:none" d="M -0.21875 -1.828125 L -0.046875 -1.609375 L -0.4375 -1.1875 L -0.25 -0.9375 L 0.03125 -1.25 L 0.1875 -1.046875 L -0.109375 -0.734375 L 0.25 -0.265625 L 0.015625 -0.015625 L -0.84375 -1.140625 Z M -0.21875 -1.828125 "/></g></g><g style="fill:#4f46e5;fill-opacity:1;"><g transform="translate(10.967058, 20.245329)"><path style="stroke:none" d="M -0.65625 -1.46875 L 0.25 -0.265625 L 0.015625 -0.015625 L -0.890625 -1.21875 Z M -0.65625 -1.46875 "/></g></g><g style="fill:#4f46e5;fill-opacity:1;"><g transform="translate(11.369897, 19.814265)"><path style="stroke:none" d="M -0.5 -1.09375 L 0.109375 -0.71875 L -0.140625 -1.46875 L 0.109375 -1.75 L 0.640625 0.078125 L 0.390625 0.359375 L 0.234375 -0.28125 L -0.75 -0.8125 Z M -0.5 -1.09375 "/></g></g></g></svg>